<?xml version="1.0" ?><svg viewBox="0 0 32 32" xmlns="http://www.w3.org/2000/svg"><defs><style>.cls-1{fill:#007130;}.cls-2{fill:#251d62;}.cls-3{fill:#312783;}.cls-4{fill:#009640;}.cls-5{fill:#e30613;}.cls-6{fill:#ffed00;}.cls-7{fill:none;}</style></defs><title/><g data-name="Layer 20" id="Layer_20"><polygon class="cls-1" points="16.92 16 15.5 16.5 2.5 11.5 10.41 9.24 16.92 16"/><path class="cls-1" d="M21,20.25a25.52,25.52,0,0,1-5,.69A20.76,20.76,0,0,1,10,20,2.05,2.05,0,0,1,8.5,18.09v-1l.27.21a2.07,2.07,0,0,0,1.18.93,20.76,20.76,0,0,0,6,.92,28.11,28.11,0,0,0,3.5-.51Z"/><path class="cls-2" d="M19.5,18.63a31.58,31.58,0,0,1-3.5.31A20.76,20.76,0,0,1,10,18a2.14,2.14,0,0,1-.65-.34l-.53-.39a2,2,0,0,1-.27-1V14l7,2.69,1.73-.62Z"/><path class="cls-3" d="M23.5,13.86v2.43a1.9,1.9,0,0,1-.26,1,2,2,0,0,1-1.19,1,20.43,20.43,0,0,1-3.13.7,19.13,19.13,0,0,1-2.92.22,20.76,20.76,0,0,1-6-.92,2.07,2.07,0,0,1-1.18-.93l.53.39A2.14,2.14,0,0,0,10,18a20.76,20.76,0,0,0,6,.92,19.45,19.45,0,0,0,2.75-.19L16.4,16.4Z"/><path class="cls-4" d="M23.5,17.06v1A2.06,2.06,0,0,1,22,20c-.53.16-1.07.3-1.61.42l-1.52-1.52a19.13,19.13,0,0,1-2.92.22,20.76,20.76,0,0,1-6-.92,2.07,2.07,0,0,1-1.18-.93l.53.39A2.14,2.14,0,0,0,10,18a20.76,20.76,0,0,0,6,.92,19.45,19.45,0,0,0,2.75-.19A21.18,21.18,0,0,0,22,18a2.14,2.14,0,0,0,.65-.34l.54-.42Z"/><path class="cls-4" d="M16.5,7.5l-7,2,6.74,6.74L29.5,11.5Zm-.5,6c-1.38,0-2.5-.67-2.5-1.5s1.12-1.5,2.5-1.5a2.54,2.54,0,0,1,2.44,1.2l.11.31h0l-.14.34A2.55,2.55,0,0,1,16,13.5Z"/><ellipse class="cls-5" cx="16" cy="12" rx="2.5" ry="1.5"/><path class="cls-6" d="M25.54,24.5v-2a1,1,0,0,1,2,0v2Z"/><path d="M29.65,11l-13-4a.5.5,0,0,0-.29,0l-14,4a.5.5,0,0,0,0,.95L8,14.15v3.92a2.55,2.55,0,0,0,1.8,2.41,21.19,21.19,0,0,0,6.2.94,21.13,21.13,0,0,0,6.19-.94A2.55,2.55,0,0,0,24,18.07V14l2-.7a.49.49,0,0,1,0,.2v7.59a1.5,1.5,0,0,0-1,1.41v2a.5.5,0,0,0,.5.5h2a.5.5,0,0,0,.5-.5v-2a1.5,1.5,0,0,0-1-1.41V13.5a1.48,1.48,0,0,0-.1-.54l2.77-1a.5.5,0,0,0,0-.95ZM27,24H26V22.5a.5.5,0,0,1,1,0Zm-5.1-4.48a19.88,19.88,0,0,1-11.81,0A1.54,1.54,0,0,1,9,18.07H9a2.54,2.54,0,0,0,.8.42,21.19,21.19,0,0,0,6.2.94,21.13,21.13,0,0,0,6.19-.94,2.54,2.54,0,0,0,.8-.42h0A1.54,1.54,0,0,1,21.9,19.52ZM23,16.07a1.54,1.54,0,0,1-1.1,1.45,19.88,19.88,0,0,1-11.81,0A1.54,1.54,0,0,1,9,16.07V14.54L15.32,17a.49.49,0,0,0,.18,0h0a.49.49,0,0,0,.17,0L23,14.35Zm3.17-3.91a1.48,1.48,0,0,0-.56-.15l-6.7-.48A3,3,0,0,0,16,10c-1.68,0-3,.88-3,2s1.32,2,3,2a3,3,0,0,0,2.88-1.47l5.21.37-.75.27h0L15.51,16,4.07,11.57,16.5,8l11.42,3.51ZM18,12c0,.47-.86,1-2,1s-2-.53-2-1,.86-1,2-1S18,11.53,18,12Z"/><line class="cls-7" x1="16.4" x2="16.24" y1="16.4" y2="16.24"/><line class="cls-7" x1="18.92" x2="18.75" y1="18.92" y2="18.75"/></g></svg>