<?xml version="1.0" ?><svg id="Layer_1" style="enable-background:new 0 0 512 512;" version="1.1" viewBox="0 0 512 512" xml:space="preserve" xmlns="http://www.w3.org/2000/svg" xmlns:xlink="http://www.w3.org/1999/xlink"><style type="text/css">
	.st0{fill:#1EF6F6;}
	.st1{fill:#FDDD7B;}
	.st2{fill:#EAF3F2;}
	.st3{fill:#D4FF93;}
	.st4{fill:#FD535F;}
	.st5{stroke:#000000;stroke-width:2;stroke-linecap:round;stroke-linejoin:round;stroke-miterlimit:10;}
	.st6{fill:none;stroke:#000000;stroke-width:2;stroke-linecap:round;stroke-linejoin:round;stroke-miterlimit:10;}
	.st7{fill:#1EF6F6;stroke:#000000;stroke-width:2;stroke-linecap:round;stroke-linejoin:round;stroke-miterlimit:10;}
</style><g><g><polygon class="st0" points="452.45,503.27 59.55,503.27 59.55,8.73 367.21,8.73 452.45,85.05   "/><path d="M452.45,511H59.55c-4.27,0-7.73-3.46-7.73-7.73V8.73c0-4.27,3.46-7.73,7.73-7.73h307.66c1.9,0,3.74,0.7,5.15,1.97    l85.24,76.32c1.64,1.46,2.57,3.56,2.57,5.76v418.22C460.18,507.54,456.72,511,452.45,511z M67.28,495.55h377.44V88.51    l-80.46-72.05H67.28V495.55z"/></g><g><polygon class="st2" points="367.21,8.73 367.38,85.05 452.45,85.05   "/><path d="M452.45,92.78h-85.07c-4.26,0-7.72-3.45-7.73-7.71l-0.17-76.32c-0.01-3.05,1.78-5.82,4.57-7.06    c2.77-1.26,6.04-0.74,8.32,1.29l85.24,76.32c2.38,2.14,3.21,5.52,2.06,8.52C458.52,90.8,455.65,92.78,452.45,92.78z M375.09,77.32    h57.14l-57.26-51.27L375.09,77.32z"/></g><g><g><path d="M101.49,37.19h16.75l17.66,42.66V37.19h11.67v68.67h-13.48l-20.93-49.7v49.7h-11.67V37.19z"/></g><g><path d="M159.95,37.19h37.89v11.77h-22.8v15.95h20.73v11.77h-20.73v16.9h22.8v12.27h-37.89V37.19z"/></g><g><path d="M202.06,37.19h15.44l7.21,47.49l9-47.49h13.84l8.47,47.77l8.4-47.77h12.71l-14.74,69.02h-13.53l-9.15-47.74l-9.36,47.74     h-13.38L202.06,37.19z"/></g><g><path d="M325.21,52.13l-12.47,4.78c-1.78-5.67-5.03-8.5-9.76-8.5c-2.21,0-3.97,0.63-5.26,1.89c-1.29,1.26-1.94,2.73-1.94,4.4     c0,1.95,0.76,3.5,2.29,4.65c1.52,1.16,4.72,2.68,9.58,4.55c4.43,1.65,7.9,3.27,10.44,4.88c2.53,1.61,4.58,3.8,6.14,6.57     c1.56,2.77,2.34,5.98,2.34,9.64c0,6.41-2.2,11.66-6.61,15.77c-4.41,4.11-10.32,6.16-17.73,6.16c-12.44,0-20.39-6.29-23.85-18.87     l13.18-3.77c1.61,6.91,5.28,10.36,11.02,10.36c2.62,0,4.74-0.68,6.37-2.04s2.44-3.15,2.44-5.36c0-1.68-0.57-3.18-1.71-4.51     c-1.14-1.32-3.75-2.72-7.85-4.2c-5.26-1.88-9.19-3.58-11.77-5.1c-2.58-1.53-4.71-3.71-6.39-6.54c-1.68-2.83-2.52-6.06-2.52-9.68     c0-6.17,1.99-11.23,5.96-15.17c3.98-3.94,9.23-5.91,15.77-5.91C314.81,36.14,322.26,41.47,325.21,52.13z"/></g></g><g><g><path d="M239.7,166.96h-136c-4.27,0-7.73-3.46-7.73-7.73s3.46-7.73,7.73-7.73h136c4.27,0,7.73,3.46,7.73,7.73     S243.97,166.96,239.7,166.96z"/></g><g><path d="M239.7,222.6h-136c-4.27,0-7.73-3.46-7.73-7.73s3.46-7.73,7.73-7.73h136c4.27,0,7.73,3.46,7.73,7.73     S243.97,222.6,239.7,222.6z"/></g><g><path d="M408.3,166.96h-136c-4.27,0-7.73-3.46-7.73-7.73s3.46-7.73,7.73-7.73h136c4.27,0,7.73,3.46,7.73,7.73     S412.57,166.96,408.3,166.96z"/></g><g><path d="M408.3,222.6h-136c-4.27,0-7.73-3.46-7.73-7.73s3.46-7.73,7.73-7.73h136c4.27,0,7.73,3.46,7.73,7.73     S412.57,222.6,408.3,222.6z"/></g></g><g><g><path d="M239.7,278.24h-136c-4.27,0-7.73-3.46-7.73-7.73s3.46-7.73,7.73-7.73h136c4.27,0,7.73,3.46,7.73,7.73     S243.97,278.24,239.7,278.24z"/></g><g><path d="M239.7,333.88h-136c-4.27,0-7.73-3.46-7.73-7.73c0-4.27,3.46-7.73,7.73-7.73h136c4.27,0,7.73,3.46,7.73,7.73     C247.43,330.42,243.97,333.88,239.7,333.88z"/></g><g><path d="M408.3,278.24h-136c-4.27,0-7.73-3.46-7.73-7.73s3.46-7.73,7.73-7.73h136c4.27,0,7.73,3.46,7.73,7.73     S412.57,278.24,408.3,278.24z"/></g><g><path d="M408.3,333.88h-136c-4.27,0-7.73-3.46-7.73-7.73c0-4.27,3.46-7.73,7.73-7.73h136c4.27,0,7.73,3.46,7.73,7.73     C416.02,330.42,412.57,333.88,408.3,333.88z"/></g></g><g><g><path d="M239.7,389.52h-136c-4.27,0-7.73-3.46-7.73-7.73s3.46-7.73,7.73-7.73h136c4.27,0,7.73,3.46,7.73,7.73     S243.97,389.52,239.7,389.52z"/></g><g><path d="M239.7,445.16h-136c-4.27,0-7.73-3.46-7.73-7.73s3.46-7.73,7.73-7.73h136c4.27,0,7.73,3.46,7.73,7.73     S243.97,445.16,239.7,445.16z"/></g><g><path d="M408.3,389.52h-136c-4.27,0-7.73-3.46-7.73-7.73s3.46-7.73,7.73-7.73h136c4.27,0,7.73,3.46,7.73,7.73     S412.57,389.52,408.3,389.52z"/></g><g><path d="M408.3,445.16h-136c-4.27,0-7.73-3.46-7.73-7.73s3.46-7.73,7.73-7.73h136c4.27,0,7.73,3.46,7.73,7.73     S412.57,445.16,408.3,445.16z"/></g></g></g></svg>